<svg width="18" height="22" viewBox="0 0 18 22" fill="none" xmlns="http://www.w3.org/2000/svg">
<path d="M17.4949 3.99999H12.9192V2.58999C12.9192 1.90481 12.645 1.24754 12.1565 0.762111C11.6681 0.276678 11.0052 0.00263615 10.3131 -9.34063e-06H7.69697C7.35087 -0.00397841 7.00741 0.0600835 6.6865 0.188465C6.36559 0.316847 6.0736 0.506995 5.82744 0.747895C5.58129 0.988795 5.38587 1.27566 5.25251 1.59186C5.11914 1.90807 5.05048 2.24733 5.0505 2.58999V3.99999H0.50505C0.371103 3.99999 0.242641 4.05267 0.147926 4.14644C0.0532105 4.24021 0 4.36738 0 4.49999C0 4.6326 0.0532105 4.75978 0.147926 4.85354C0.242641 4.94731 0.371103 4.99999 0.50505 4.99999H2.52525C2.52207 5.04994 2.52207 5.10004 2.52525 5.14999V20.71C2.525 21.0436 2.65533 21.3644 2.88888 21.6049C3.12242 21.8455 3.44102 21.9871 3.77778 22H14.2323C14.5779 22 14.9093 21.8641 15.1537 21.6222C15.3981 21.3802 15.5354 21.0521 15.5354 20.71V5.17999C15.5385 5.13004 15.5385 5.07994 15.5354 5.02999H17.5556C17.6895 5.02999 17.818 4.97731 17.9127 4.88354C18.0074 4.78978 18.0606 4.6626 18.0606 4.52999C18.0606 4.39738 18.0074 4.27021 17.9127 4.17644C17.818 4.08267 17.6895 4.02999 17.5556 4.02999L17.4949 3.99999ZM6.06061 2.87999V2.58999C6.06057 2.37864 6.10309 2.1694 6.18569 1.97451C6.26829 1.77962 6.38931 1.60299 6.54167 1.45495C6.69403 1.30691 6.87468 1.19042 7.07305 1.1123C7.27141 1.03418 7.48352 0.996003 7.69697 0.999991H10.3131C10.7391 0.999991 11.1476 1.16751 11.4488 1.46569C11.75 1.76387 11.9192 2.1683 11.9192 2.58999V3.87999H6.06061V2.87999ZM14.4949 5.16999V20.71C14.4949 20.7869 14.4641 20.8607 14.4092 20.9151C14.3542 20.9694 14.2797 21 14.202 21H3.77778C3.70009 21 3.62558 20.9694 3.57065 20.9151C3.51571 20.8607 3.48485 20.7869 3.48485 20.71V5.17999C3.48037 5.11604 3.4982 5.0525 3.53535 4.99999H14.4646C14.5054 5.05118 14.5268 5.11484 14.5253 5.17999L14.4949 5.16999Z" fill="#F4583F"/>
</svg>
